<svg xmlns="http://www.w3.org/2000/svg" width="48" height="48" viewBox="0 0 256 256" fill="none" id="my-svg">
  <defs><pattern id="a" patternUnits="userSpaceOnUse" width="80" height="80" patternTransform="scale(3.19) rotate(0)"><rect x="0" y="0" width="100%" height="100%" fill="hsla(0,0%,100%,1)"></rect><path d="M-20.133 4.568C-13.178 4.932-6.452 7.376 0 10c6.452 2.624 13.036 5.072 20 5 6.967-.072 13.56-2.341 20-5 6.44-2.659 13.033-4.928 20-5 6.964-.072 13.548 2.376 20 5s13.178 5.068 20.133 5.432" stroke-width="30" stroke="#FFE3E3" fill="none"></path><path d="M-20.133 24.568C-13.178 24.932-6.452 27.376 0 30c6.452 2.624 13.036 5.072 20 5 6.967-.072 13.56-2.341 20-5 6.44-2.659 13.033-4.928 20-5 6.964-.072 13.548 2.376 20 5s13.178 5.068 20.133 5.432" stroke-width="30" stroke="#E4D8DC" fill="none"></path><path d="M-20.133 44.568C-13.178 44.932-6.452 47.376 0 50c6.452 2.624 13.036 5.072 20 5 6.967-.072 13.56-2.341 20-5 6.44-2.659 13.033-4.928 20-5 6.964-.072 13.548 2.376 20 5s13.178 5.068 20.133 5.432" stroke-width="30" stroke="#C9CCD5" fill="none"></path><path d="M-20.133 64.568C-13.178 64.932-6.452 67.376 0 70c6.452 2.624 13.036 5.072 20 5 6.967-.072 13.56-2.341 20-5 6.44-2.659 13.033-4.928 20-5 6.964-.072 13.548 2.376 20 5s13.178 5.068 20.133 5.432" stroke-width="30" stroke="#93B5C6" fill="none"></path></pattern>
    <linearGradient id="gradient1">
      <stop class="stop1" offset="0%" stop-color="#8f66ff"></stop>
      <stop class="stop2" offset="100%" stop-color="#3d12ff"></stop>
    </linearGradient>
  </defs>
  <rect id="backgr" width="256" height="256" fill="none" rx="60"></rect>
  <g id="group" transform="translate(0,0) scale(1)">
    <path fill-rule="evenodd" clip-rule="evenodd" d="M31.999 64.000C31.999 58.109 36.774 53.333 42.665 53.333H213.332C219.223 53.333 223.999 58.109 223.999 64.000V192.000C223.999 197.891 219.223 202.667 213.332 202.667H42.665C36.774 202.667 31.999 197.891 31.999 192.000V64.000ZM74.665 85.333C68.774 85.333 63.999 90.109 63.999 96.000V128.000C63.999 133.891 68.774 138.667 74.665 138.667C80.556 138.667 85.332 133.891 85.332 128.000V106.667H106.665C112.557 106.667 117.332 101.891 117.332 96.000C117.332 90.109 112.557 85.333 106.665 85.333H74.665ZM191.999 128.000C191.999 122.109 187.223 117.333 181.332 117.333C175.441 117.333 170.666 122.109 170.666 128.000V149.333H149.332C143.441 149.333 138.666 154.109 138.666 160.000C138.666 165.891 143.441 170.667 149.332 170.667H181.332C187.223 170.667 191.999 165.891 191.999 160.000V128.000Z" fill="url(#a)" stroke-width="14" id="filled" stroke="none" stroke-linecap="round" stroke-linejoin="round"></path>
  </g>
</svg>