<svg xmlns="http://www.w3.org/2000/svg" width="48" height="48" viewBox="0 0 256 256" fill="none" id="my-svg">
  <defs><pattern id="a" patternUnits="userSpaceOnUse" width="80" height="80" patternTransform="scale(3.19) rotate(0)"><rect x="0" y="0" width="100%" height="100%" fill="hsla(0,0%,100%,1)"></rect><path d="M-20.133 4.568C-13.178 4.932-6.452 7.376 0 10c6.452 2.624 13.036 5.072 20 5 6.967-.072 13.56-2.341 20-5 6.44-2.659 13.033-4.928 20-5 6.964-.072 13.548 2.376 20 5s13.178 5.068 20.133 5.432" stroke-width="30" stroke="#FFE3E3" fill="none"></path><path d="M-20.133 24.568C-13.178 24.932-6.452 27.376 0 30c6.452 2.624 13.036 5.072 20 5 6.967-.072 13.56-2.341 20-5 6.44-2.659 13.033-4.928 20-5 6.964-.072 13.548 2.376 20 5s13.178 5.068 20.133 5.432" stroke-width="30" stroke="#E4D8DC" fill="none"></path><path d="M-20.133 44.568C-13.178 44.932-6.452 47.376 0 50c6.452 2.624 13.036 5.072 20 5 6.967-.072 13.56-2.341 20-5 6.44-2.659 13.033-4.928 20-5 6.964-.072 13.548 2.376 20 5s13.178 5.068 20.133 5.432" stroke-width="30" stroke="#C9CCD5" fill="none"></path><path d="M-20.133 64.568C-13.178 64.932-6.452 67.376 0 70c6.452 2.624 13.036 5.072 20 5 6.967-.072 13.56-2.341 20-5 6.44-2.659 13.033-4.928 20-5 6.964-.072 13.548 2.376 20 5s13.178 5.068 20.133 5.432" stroke-width="30" stroke="#93B5C6" fill="none"></path></pattern>
    <linearGradient id="gradient1">
      <stop class="stop1" offset="0%" stop-color="#8f66ff"></stop>
      <stop class="stop2" offset="100%" stop-color="#3d12ff"></stop>
    </linearGradient>
  </defs>
    <rect id="backgr" width="256" height="256" fill="none" rx="60"></rect>
  <g id="group" transform="translate(0,0) scale(1)">
    <path d="M234.667 32.000C234.667 26.109 229.891 21.333 224.000 21.333H64.000C58.109 21.333 53.333 26.109 53.333 32.000L53.333 74.667C53.333 80.558 58.109 85.333 64.000 85.333L224.000 85.333C229.891 85.333 234.667 80.558 234.667 74.667V32.000Z" fill="url(#a)" stroke-width="14" id="filled" stroke="none" stroke-linecap="round" stroke-linejoin="round"></path>
    <path d="M202.667 181.333C202.667 175.442 197.891 170.667 192.000 170.667L64.000 170.667C58.109 170.667 53.333 175.442 53.333 181.333V224.000C53.333 229.891 58.109 234.667 64.000 234.667H192.000C197.891 234.667 202.667 229.891 202.667 224.000V181.333Z" fill="url(#a)" stroke-width="14" id="filled" stroke="none" stroke-linecap="round" stroke-linejoin="round"></path>
    <path d="M160.000 106.667C160.000 100.776 155.225 96.000 149.333 96.000L64.000 96.000C58.109 96.000 53.333 100.776 53.333 106.667L53.333 149.333C53.333 155.225 58.109 160.000 64.000 160.000H149.333C155.225 160.000 160.000 155.225 160.000 149.333L160.000 106.667Z" fill="url(#a)" stroke-width="14" id="filled" stroke="none" stroke-linecap="round" stroke-linejoin="round"></path>
    <path d="M42.667 32.000C42.667 26.109 37.891 21.333 32.000 21.333C26.109 21.333 21.333 26.109 21.333 32.000V224.000C21.333 229.891 26.109 234.667 32.000 234.667C37.891 234.667 42.667 229.891 42.667 224.000L42.667 32.000Z" fill="url(#a)" stroke-width="14" id="filled" stroke="none" stroke-linecap="round" stroke-linejoin="round"></path>
  </g>
</svg>