<svg xmlns="http://www.w3.org/2000/svg" width="48" height="48" viewBox="0 0 256 256" fill="none" id="my-svg">
  <defs><pattern id="a" patternUnits="userSpaceOnUse" width="80" height="80" patternTransform="scale(3.19) rotate(0)"><rect x="0" y="0" width="100%" height="100%" fill="hsla(0,0%,100%,1)"></rect><path d="M-20.133 4.568C-13.178 4.932-6.452 7.376 0 10c6.452 2.624 13.036 5.072 20 5 6.967-.072 13.56-2.341 20-5 6.44-2.659 13.033-4.928 20-5 6.964-.072 13.548 2.376 20 5s13.178 5.068 20.133 5.432" stroke-width="30" stroke="#FFE3E3" fill="none"></path><path d="M-20.133 24.568C-13.178 24.932-6.452 27.376 0 30c6.452 2.624 13.036 5.072 20 5 6.967-.072 13.56-2.341 20-5 6.44-2.659 13.033-4.928 20-5 6.964-.072 13.548 2.376 20 5s13.178 5.068 20.133 5.432" stroke-width="30" stroke="#E4D8DC" fill="none"></path><path d="M-20.133 44.568C-13.178 44.932-6.452 47.376 0 50c6.452 2.624 13.036 5.072 20 5 6.967-.072 13.56-2.341 20-5 6.44-2.659 13.033-4.928 20-5 6.964-.072 13.548 2.376 20 5s13.178 5.068 20.133 5.432" stroke-width="30" stroke="#C9CCD5" fill="none"></path><path d="M-20.133 64.568C-13.178 64.932-6.452 67.376 0 70c6.452 2.624 13.036 5.072 20 5 6.967-.072 13.56-2.341 20-5 6.44-2.659 13.033-4.928 20-5 6.964-.072 13.548 2.376 20 5s13.178 5.068 20.133 5.432" stroke-width="30" stroke="#93B5C6" fill="none"></path></pattern>
    <linearGradient id="gradient1">
      <stop class="stop1" offset="0%" stop-color="#8f66ff"></stop>
      <stop class="stop2" offset="100%" stop-color="#3d12ff"></stop>
    </linearGradient>
  </defs>
  <rect id="backgr" width="256" height="256" fill="none" rx="60"></rect>
  <g id="group" transform="translate(0,0) scale(1)">
    <path d="M213.333 128.000C213.333 135.366 212.400 142.515 210.645 149.333M128.000 213.333C120.634 213.333 113.485 212.400 106.665 210.644M42.667 128.000C42.667 120.634 43.600 113.485 45.355 106.667M127.999 42.667C135.364 42.667 142.514 43.600 149.332 45.355M67.724 67.597C62.441 72.869 57.845 78.830 54.083 85.333M188.403 188.276C193.633 183.036 198.186 177.118 201.917 170.667M67.724 188.403C72.964 193.633 78.881 198.185 85.332 201.917M188.276 67.597C183.035 62.366 177.117 57.814 170.666 54.082M85.332 54.084C91.935 50.264 99.097 47.303 106.665 45.355M45.355 149.333C47.303 156.901 50.263 164.064 54.083 170.667M149.334 210.644C156.902 208.697 164.063 205.737 170.666 201.918M210.645 106.667C208.697 99.098 205.737 91.936 201.917 85.333" stroke="url(#a)" stroke-width="14" stroke-linecap="round" id="solid" stroke-linejoin="round"></path>
  </g>
</svg>