<svg xmlns="http://www.w3.org/2000/svg" width="48" height="48" viewBox="0 0 256 256" fill="none" id="my-svg">
  <defs><pattern id="a" patternUnits="userSpaceOnUse" width="80" height="80" patternTransform="scale(3.19) rotate(0)"><rect x="0" y="0" width="100%" height="100%" fill="hsla(0,0%,100%,1)"></rect><path d="M-20.133 4.568C-13.178 4.932-6.452 7.376 0 10c6.452 2.624 13.036 5.072 20 5 6.967-.072 13.56-2.341 20-5 6.44-2.659 13.033-4.928 20-5 6.964-.072 13.548 2.376 20 5s13.178 5.068 20.133 5.432" stroke-width="30" stroke="#FFE3E3" fill="none"></path><path d="M-20.133 24.568C-13.178 24.932-6.452 27.376 0 30c6.452 2.624 13.036 5.072 20 5 6.967-.072 13.56-2.341 20-5 6.44-2.659 13.033-4.928 20-5 6.964-.072 13.548 2.376 20 5s13.178 5.068 20.133 5.432" stroke-width="30" stroke="#E4D8DC" fill="none"></path><path d="M-20.133 44.568C-13.178 44.932-6.452 47.376 0 50c6.452 2.624 13.036 5.072 20 5 6.967-.072 13.56-2.341 20-5 6.44-2.659 13.033-4.928 20-5 6.964-.072 13.548 2.376 20 5s13.178 5.068 20.133 5.432" stroke-width="30" stroke="#C9CCD5" fill="none"></path><path d="M-20.133 64.568C-13.178 64.932-6.452 67.376 0 70c6.452 2.624 13.036 5.072 20 5 6.967-.072 13.56-2.341 20-5 6.44-2.659 13.033-4.928 20-5 6.964-.072 13.548 2.376 20 5s13.178 5.068 20.133 5.432" stroke-width="30" stroke="#93B5C6" fill="none"></path></pattern>
    <linearGradient id="gradient1">
      <stop class="stop1" offset="0%" stop-color="#8f66ff"></stop>
      <stop class="stop2" offset="100%" stop-color="#3d12ff"></stop>
    </linearGradient>
  </defs>
      <rect id="backgr" width="256" height="256" fill="none" rx="60"></rect>
  <g id="group" transform="translate(0,0) scale(1)">
    <path fill-rule="evenodd" clip-rule="evenodd" d="M121.067 48.133C117.788 45.674 112.814 42.667 106.667 42.667H53.333C35.660 42.667 21.333 56.994 21.333 74.667V181.333C21.333 199.007 35.660 213.333 53.333 213.333H202.667C218.865 213.333 234.667 199.360 234.667 181.333L234.667 96.000C234.667 87.198 230.372 79.288 224.876 73.791C219.379 68.294 211.469 64.000 202.667 64.000H138.994C138.791 63.915 138.176 63.632 137.067 62.800C135.125 61.344 133.015 59.264 130.209 56.457L129.962 56.210C127.473 53.720 124.349 50.595 121.067 48.133ZM90.667 138.667C90.667 129.830 97.830 122.667 106.667 122.667C112.558 122.667 117.333 117.891 117.333 112.000C117.333 106.109 112.558 101.333 106.667 101.333C86.048 101.333 69.333 118.048 69.333 138.667C69.333 159.285 86.048 176.000 106.667 176.000C112.558 176.000 117.333 171.225 117.333 165.333C117.333 159.442 112.558 154.667 106.667 154.667C97.830 154.667 90.667 147.503 90.667 138.667ZM149.333 101.333C143.442 101.333 138.667 106.109 138.667 112.000C138.667 117.891 143.442 122.667 149.333 122.667C158.170 122.667 165.333 129.830 165.333 138.667C165.333 143.151 163.503 147.187 160.522 150.105C157.626 152.938 153.692 154.667 149.333 154.667C143.442 154.667 138.667 159.442 138.667 165.333C138.667 171.225 143.442 176.000 149.333 176.000C159.491 176.000 168.720 171.930 175.440 165.354C182.355 158.589 186.667 149.122 186.667 138.667C186.667 118.048 169.952 101.333 149.333 101.333ZM112.000 128.000C106.109 128.000 101.333 132.775 101.333 138.667C101.333 144.558 106.109 149.333 112.000 149.333H144.000C149.891 149.333 154.667 144.558 154.667 138.667C154.667 132.775 149.891 128.000 144.000 128.000H112.000Z" fill="url(#a)" stroke-width="14" id="filled" stroke="none" stroke-linecap="round" stroke-linejoin="round"></path>
  </g>
</svg>