<svg xmlns="http://www.w3.org/2000/svg" width="48" height="48" viewBox="0 0 256 256" fill="none" id="my-svg">
  <defs><pattern id="a" patternUnits="userSpaceOnUse" width="80" height="80" patternTransform="scale(3.19) rotate(0)"><rect x="0" y="0" width="100%" height="100%" fill="hsla(0,0%,100%,1)"></rect><path d="M-20.133 4.568C-13.178 4.932-6.452 7.376 0 10c6.452 2.624 13.036 5.072 20 5 6.967-.072 13.56-2.341 20-5 6.44-2.659 13.033-4.928 20-5 6.964-.072 13.548 2.376 20 5s13.178 5.068 20.133 5.432" stroke-width="30" stroke="#FFE3E3" fill="none"></path><path d="M-20.133 24.568C-13.178 24.932-6.452 27.376 0 30c6.452 2.624 13.036 5.072 20 5 6.967-.072 13.56-2.341 20-5 6.44-2.659 13.033-4.928 20-5 6.964-.072 13.548 2.376 20 5s13.178 5.068 20.133 5.432" stroke-width="30" stroke="#E4D8DC" fill="none"></path><path d="M-20.133 44.568C-13.178 44.932-6.452 47.376 0 50c6.452 2.624 13.036 5.072 20 5 6.967-.072 13.56-2.341 20-5 6.44-2.659 13.033-4.928 20-5 6.964-.072 13.548 2.376 20 5s13.178 5.068 20.133 5.432" stroke-width="30" stroke="#C9CCD5" fill="none"></path><path d="M-20.133 64.568C-13.178 64.932-6.452 67.376 0 70c6.452 2.624 13.036 5.072 20 5 6.967-.072 13.56-2.341 20-5 6.44-2.659 13.033-4.928 20-5 6.964-.072 13.548 2.376 20 5s13.178 5.068 20.133 5.432" stroke-width="30" stroke="#93B5C6" fill="none"></path></pattern>
    <linearGradient id="gradient1">
      <stop class="stop1" offset="0%" stop-color="#8f66ff"></stop>
      <stop class="stop2" offset="100%" stop-color="#3d12ff"></stop>
    </linearGradient>
  </defs>
  <rect id="backgr" width="256" height="256" fill="none" rx="60"></rect>
  <g id="group" transform="translate(0,0) scale(1)">
    <path fill-rule="evenodd" clip-rule="evenodd" d="M44.792 49.881C60.754 46.657 88.494 42.667 128.000 42.667C167.506 42.667 195.246 46.657 211.207 49.881C225.725 52.814 234.667 65.689 234.667 79.376V176.624C234.667 190.311 225.725 203.186 211.207 206.118C195.246 209.343 167.506 213.333 128.000 213.333C88.494 213.333 60.754 209.343 44.792 206.118C30.275 203.186 21.333 190.311 21.333 176.624V79.376C21.333 65.689 30.275 52.814 44.792 49.881ZM101.411 86.718C104.755 84.824 108.860 84.876 112.155 86.853L165.488 118.853C168.701 120.781 170.667 124.253 170.667 128.000C170.667 131.747 168.701 135.219 165.488 137.147L112.155 169.147C108.860 171.124 104.755 171.175 101.411 169.282C98.067 167.389 96.000 163.843 96.000 160.000V96.000C96.000 92.157 98.067 88.611 101.411 86.718Z" fill="url(#a)" stroke-width="14" id="filled" stroke="none" stroke-linecap="round" stroke-linejoin="round"></path>
  </g>
</svg>