<svg xmlns="http://www.w3.org/2000/svg" width="48" height="48" viewBox="0 0 256 256" fill="none" id="my-svg">
  <defs><pattern id="a" patternUnits="userSpaceOnUse" width="80" height="80" patternTransform="scale(3.19) rotate(0)"><rect x="0" y="0" width="100%" height="100%" fill="hsla(0,0%,100%,1)"></rect><path d="M-20.133 4.568C-13.178 4.932-6.452 7.376 0 10c6.452 2.624 13.036 5.072 20 5 6.967-.072 13.56-2.341 20-5 6.44-2.659 13.033-4.928 20-5 6.964-.072 13.548 2.376 20 5s13.178 5.068 20.133 5.432" stroke-width="30" stroke="#FFE3E3" fill="none"></path><path d="M-20.133 24.568C-13.178 24.932-6.452 27.376 0 30c6.452 2.624 13.036 5.072 20 5 6.967-.072 13.56-2.341 20-5 6.44-2.659 13.033-4.928 20-5 6.964-.072 13.548 2.376 20 5s13.178 5.068 20.133 5.432" stroke-width="30" stroke="#E4D8DC" fill="none"></path><path d="M-20.133 44.568C-13.178 44.932-6.452 47.376 0 50c6.452 2.624 13.036 5.072 20 5 6.967-.072 13.56-2.341 20-5 6.44-2.659 13.033-4.928 20-5 6.964-.072 13.548 2.376 20 5s13.178 5.068 20.133 5.432" stroke-width="30" stroke="#C9CCD5" fill="none"></path><path d="M-20.133 64.568C-13.178 64.932-6.452 67.376 0 70c6.452 2.624 13.036 5.072 20 5 6.967-.072 13.56-2.341 20-5 6.44-2.659 13.033-4.928 20-5 6.964-.072 13.548 2.376 20 5s13.178 5.068 20.133 5.432" stroke-width="30" stroke="#93B5C6" fill="none"></path></pattern>
    <linearGradient id="gradient1">
      <stop class="stop1" offset="0%" stop-color="#8f66ff"></stop>
      <stop class="stop2" offset="100%" stop-color="#3d12ff"></stop>
    </linearGradient>
  </defs>
      <rect id="backgr" width="256" height="256" fill="none" rx="60"></rect>
  <g id="group" transform="translate(0,0) scale(1)">
    <path d="M121.067 26.800C117.788 24.340 112.814 21.333 106.667 21.333H53.333C35.660 21.333 21.333 35.660 21.333 53.333V160.000C21.333 166.764 23.438 173.042 27.016 178.207L29.122 172.557L53.811 92.844C55.194 88.378 59.325 85.333 64.000 85.333H213.333V74.667C213.333 65.864 209.040 57.954 203.542 52.457C198.046 46.961 190.135 42.667 181.333 42.667H138.994C138.791 42.582 138.176 42.299 137.067 41.467C135.125 40.010 133.015 37.930 130.209 35.124L129.962 34.877C127.473 32.387 124.349 29.261 121.067 26.800Z" fill="url(#a)" stroke-width="14" id="filled" stroke="none" stroke-linecap="round" stroke-linejoin="round"></path>
    <path d="M231.392 106.667H71.863L49.411 179.156C49.352 179.347 49.287 179.537 49.217 179.725L45.047 190.914C47.692 191.622 50.470 192.000 53.333 192.000H128.000C128.000 174.326 142.326 160.000 160.000 160.000C160.000 142.326 174.326 128.000 192.000 128.000C202.868 128.000 212.470 133.418 218.255 141.700L231.392 106.667Z" fill="url(#a)" stroke-width="14" id="filled" stroke="none" stroke-linecap="round" stroke-linejoin="round"></path>
    <path d="M181.333 160.000C181.333 154.109 186.109 149.333 192.000 149.333C197.891 149.333 202.667 154.109 202.667 160.000V181.333H224.000C229.891 181.333 234.667 186.109 234.667 192.000C234.667 197.891 229.891 202.667 224.000 202.667H202.667V224.000C202.667 229.891 197.891 234.667 192.000 234.667C186.109 234.667 181.333 229.891 181.333 224.000V202.667H160.000C154.109 202.667 149.333 197.891 149.333 192.000C149.333 186.109 154.109 181.333 160.000 181.333H181.333V160.000Z" fill="url(#a)" stroke-width="14" id="filled" stroke="none" stroke-linecap="round" stroke-linejoin="round"></path>
  </g>
</svg>