<svg xmlns="http://www.w3.org/2000/svg" width="48" height="48" viewBox="0 0 256 256" fill="none" id="my-svg">
  <defs><pattern id="a" patternUnits="userSpaceOnUse" width="80" height="80" patternTransform="scale(3.19) rotate(0)"><rect x="0" y="0" width="100%" height="100%" fill="hsla(0,0%,100%,1)"></rect><path d="M-20.133 4.568C-13.178 4.932-6.452 7.376 0 10c6.452 2.624 13.036 5.072 20 5 6.967-.072 13.56-2.341 20-5 6.44-2.659 13.033-4.928 20-5 6.964-.072 13.548 2.376 20 5s13.178 5.068 20.133 5.432" stroke-width="30" stroke="#FFE3E3" fill="none"></path><path d="M-20.133 24.568C-13.178 24.932-6.452 27.376 0 30c6.452 2.624 13.036 5.072 20 5 6.967-.072 13.56-2.341 20-5 6.44-2.659 13.033-4.928 20-5 6.964-.072 13.548 2.376 20 5s13.178 5.068 20.133 5.432" stroke-width="30" stroke="#E4D8DC" fill="none"></path><path d="M-20.133 44.568C-13.178 44.932-6.452 47.376 0 50c6.452 2.624 13.036 5.072 20 5 6.967-.072 13.56-2.341 20-5 6.44-2.659 13.033-4.928 20-5 6.964-.072 13.548 2.376 20 5s13.178 5.068 20.133 5.432" stroke-width="30" stroke="#C9CCD5" fill="none"></path><path d="M-20.133 64.568C-13.178 64.932-6.452 67.376 0 70c6.452 2.624 13.036 5.072 20 5 6.967-.072 13.56-2.341 20-5 6.44-2.659 13.033-4.928 20-5 6.964-.072 13.548 2.376 20 5s13.178 5.068 20.133 5.432" stroke-width="30" stroke="#93B5C6" fill="none"></path></pattern>
    <linearGradient id="gradient1">
      <stop class="stop1" offset="0%" stop-color="#8f66ff"></stop>
      <stop class="stop2" offset="100%" stop-color="#3d12ff"></stop>
    </linearGradient>
  </defs>
  <rect id="backgr" width="256" height="256" fill="none" rx="60"></rect>
  <g id="group" transform="translate(0,0) scale(1)">
    <path d="M138.667 53.333C138.667 35.753 118.597 25.719 104.533 36.266C104.162 36.545 103.810 36.847 103.478 37.171L59.653 79.999H42.667C30.885 79.999 21.333 89.551 21.333 101.333V154.667C21.333 166.448 30.885 176.000 42.667 176.000H59.511L102.735 220.205C103.342 220.827 104.438 221.894 105.960 222.844C113.993 227.858 122.788 225.830 128.548 221.789C134.242 217.794 138.667 210.835 138.667 202.667V53.333Z" fill="url(#a)" stroke-width="14" id="filled" stroke="none" stroke-linecap="round" stroke-linejoin="round"></path>
    <path d="M203.252 52.402C199.077 48.246 192.323 48.262 188.167 52.437C184.011 56.612 184.027 63.365 188.202 67.522C203.737 82.986 213.333 104.362 213.333 127.999C213.333 151.579 203.785 172.907 188.316 188.363C184.149 192.527 184.146 199.280 188.310 203.447C192.475 207.615 199.228 207.617 203.395 203.454C222.704 184.160 234.667 157.467 234.667 127.999C234.667 98.459 222.644 71.707 203.252 52.402Z" fill="url(#a)" stroke-width="14" id="filled" stroke="none" stroke-linecap="round" stroke-linejoin="round"></path>
    <path d="M172.800 82.295C168.594 78.171 161.840 78.238 157.716 82.445C153.593 86.651 153.660 93.405 157.867 97.529C165.778 105.285 170.667 116.062 170.667 127.999C170.667 139.632 166.026 150.159 158.470 157.866C154.347 162.073 154.414 168.826 158.621 172.949C162.828 177.074 169.581 177.007 173.705 172.800C185.011 161.267 192.000 145.439 192.000 127.999C192.000 110.098 184.637 93.898 172.800 82.295Z" fill="url(#a)" stroke-width="14" id="filled" stroke="none" stroke-linecap="round" stroke-linejoin="round"></path>
  </g>
</svg>