<svg xmlns="http://www.w3.org/2000/svg" width="48" height="48" viewBox="0 0 256 256" fill="none" id="my-svg">
  <defs><pattern id="a" patternUnits="userSpaceOnUse" width="80" height="80" patternTransform="scale(3.19) rotate(0)"><rect x="0" y="0" width="100%" height="100%" fill="hsla(0,0%,100%,1)"></rect><path d="M-20.133 4.568C-13.178 4.932-6.452 7.376 0 10c6.452 2.624 13.036 5.072 20 5 6.967-.072 13.56-2.341 20-5 6.44-2.659 13.033-4.928 20-5 6.964-.072 13.548 2.376 20 5s13.178 5.068 20.133 5.432" stroke-width="30" stroke="#FFE3E3" fill="none"></path><path d="M-20.133 24.568C-13.178 24.932-6.452 27.376 0 30c6.452 2.624 13.036 5.072 20 5 6.967-.072 13.56-2.341 20-5 6.44-2.659 13.033-4.928 20-5 6.964-.072 13.548 2.376 20 5s13.178 5.068 20.133 5.432" stroke-width="30" stroke="#E4D8DC" fill="none"></path><path d="M-20.133 44.568C-13.178 44.932-6.452 47.376 0 50c6.452 2.624 13.036 5.072 20 5 6.967-.072 13.56-2.341 20-5 6.44-2.659 13.033-4.928 20-5 6.964-.072 13.548 2.376 20 5s13.178 5.068 20.133 5.432" stroke-width="30" stroke="#C9CCD5" fill="none"></path><path d="M-20.133 64.568C-13.178 64.932-6.452 67.376 0 70c6.452 2.624 13.036 5.072 20 5 6.967-.072 13.56-2.341 20-5 6.44-2.659 13.033-4.928 20-5 6.964-.072 13.548 2.376 20 5s13.178 5.068 20.133 5.432" stroke-width="30" stroke="#93B5C6" fill="none"></path></pattern>
    <linearGradient id="gradient1">
      <stop class="stop1" offset="0%" stop-color="#8f66ff"></stop>
      <stop class="stop2" offset="100%" stop-color="#3d12ff"></stop>
    </linearGradient>
  </defs>
  <rect id="backgr" width="256" height="256" fill="none" rx="60"></rect>
  <g id="group" transform="translate(0,0) scale(1)">
    <path d="M74.667 42.667C74.667 36.776 69.891 32.000 64.000 32.000C58.109 32.000 53.333 36.776 53.333 42.667V53.333H42.667C36.776 53.333 32.000 58.109 32.000 64.000C32.000 69.891 36.776 74.667 42.667 74.667H53.333V85.333C53.333 91.224 58.109 96.000 64.000 96.000C69.891 96.000 74.667 91.224 74.667 85.333V74.667H85.333C91.224 74.667 96.000 69.891 96.000 64.000C96.000 58.109 91.224 53.333 85.333 53.333H74.667V42.667Z" fill="url(#a)" stroke-width="14" id="filled" stroke="none" stroke-linecap="round" stroke-linejoin="round"></path>
    <path d="M202.667 42.667C202.667 36.776 197.891 32.000 192.000 32.000C186.109 32.000 181.333 36.776 181.333 42.667V53.333H170.667C164.775 53.333 160.000 58.109 160.000 64.000C160.000 69.891 164.775 74.667 170.667 74.667H181.333V85.333C181.333 91.224 186.109 96.000 192.000 96.000C197.891 96.000 202.667 91.224 202.667 85.333V74.667H213.333C219.225 74.667 224.000 69.891 224.000 64.000C224.000 58.109 219.225 53.333 213.333 53.333H202.667V42.667Z" fill="url(#a)" stroke-width="14" id="filled" stroke="none" stroke-linecap="round" stroke-linejoin="round"></path>
    <path d="M137.540 80.563C135.733 76.949 132.039 74.667 128.000 74.667C123.959 74.667 120.266 76.949 118.459 80.563L100.074 117.333H64.000C59.686 117.333 55.796 119.932 54.145 123.918C52.494 127.904 53.407 132.492 56.457 135.542L84.187 163.271L74.985 200.080C73.890 204.460 75.672 209.055 79.433 211.553C83.195 214.050 88.121 213.909 91.733 211.200L128.000 184.000L164.267 211.200C167.878 213.909 172.805 214.050 176.566 211.553C180.329 209.055 182.110 204.460 181.014 200.080L171.813 163.271L199.542 135.542C202.593 132.492 203.506 127.904 201.855 123.918C200.204 119.932 196.315 117.333 192.000 117.333H155.925L137.540 80.563Z" fill="url(#a)" stroke-width="14" id="filled" stroke="none" stroke-linecap="round" stroke-linejoin="round"></path>
  </g>
</svg>